<?xml version="1.0" encoding="UTF-8" standalone="no"?>
<!-- Created with Inkscape (http://www.inkscape.org/) -->
<svg xmlns:rdf="http://www.w3.org/1999/02/22-rdf-syntax-ns#" xmlns="http://www.w3.org/2000/svg" height="100%" width="100%" version="1.1" xmlns:cc="http://creativecommons.org/ns#" xmlns:dc="http://purl.org/dc/elements/1.1/" viewBox="0 0 30 30">
 <metadata>
  <rdf:RDF>
   <cc:Work rdf:about="">
    <dc:format>image/svg+xml</dc:format>
    <dc:type rdf:resource="http://purl.org/dc/dcmitype/StillImage"/>
    <dc:title/>
   </cc:Work>
  </rdf:RDF>
 </metadata>
 <g transform="translate(-80,-782.375)">
  <path fill="#586e75" d="m95,788.38c-4.9706,0-9,4.0294-9,9s4.0294,9,9,9,9-4.0294,9-9-4.0294-9-9-9zm0.28125,2.5c0.72,0.00001,1.3132,0.0773,1.7812,0.28125,0.46799,0.19201,0.84899,0.45001,1.125,0.75,0.27599,0.30001,0.45449,0.64001,0.5625,1,0.10799,0.36001,0.15624,0.69526,0.15625,1.0312-0.000007,0.40801-0.06276,0.76976-0.21875,1.0938-0.14401,0.32401-0.33451,0.63026-0.5625,0.90625-0.22801,0.27601-0.48601,0.52926-0.75,0.78125-0.264,0.24001-0.49076,0.51726-0.71875,0.78125-0.228,0.25201-0.43776,0.52451-0.59375,0.8125-0.144,0.28801-0.21875,0.60875-0.21875,0.96875v0.21875c-0.000004,0.072,0.01925,0.1155,0.03125,0.1875h-1.875c-0.024-0.12-0.0505-0.243-0.0625-0.375-0.012-0.144-0.000002-0.255,0-0.375-0.000002-0.39599,0.0555-0.75049,0.1875-1.0625,0.132-0.31199,0.296-0.61099,0.5-0.875,0.204-0.26399,0.42825-0.52199,0.65625-0.75,0.24-0.22799,0.45225-0.42824,0.65625-0.65625,0.204-0.22799,0.368-0.47874,0.5-0.71875,0.132-0.23999,0.21874-0.49324,0.21875-0.78125-0.000005-0.39599-0.1615-0.71674-0.4375-0.96875-0.264-0.26399-0.6475-0.40624-1.1875-0.40625-0.42,0.00001-0.83475,0.0483-1.2188,0.15625-0.384,0.096-0.7675,0.27201-1.1875,0.5l-0.624-1.68c0.444-0.25199,0.936-0.44974,1.5-0.59375,0.576-0.15599,1.1812-0.21874,1.7812-0.21875zm-0.281,10.12c0.408,0,0.724,0.13025,1,0.40625,0.276,0.264,0.4375,0.61125,0.4375,1.0312-0.000005,0.42-0.1615,0.76725-0.4375,1.0312-0.276,0.264-0.592,0.40625-1,0.40625-0.396,0-0.74325-0.14225-1.0312-0.40625-0.276-0.264-0.40625-0.61125-0.40625-1.0312-0.000002-0.42,0.13025-0.76725,0.40625-1.0312,0.288-0.28,0.635-0.41,1.031-0.41z" fill-rule="nonzero"/>
 </g>
</svg>
