<?xml version="1.0" encoding="UTF-8" standalone="no"?>
<!-- Created with Inkscape (http://www.inkscape.org/) -->
<svg xmlns:rdf="http://www.w3.org/1999/02/22-rdf-syntax-ns#" xmlns="http://www.w3.org/2000/svg" height="100%" width="100%" version="1.1" xmlns:cc="http://creativecommons.org/ns#" xmlns:dc="http://purl.org/dc/elements/1.1/" viewBox="0 0 30 30">
 <metadata>
  <rdf:RDF>
   <cc:Work rdf:about="">
    <dc:format>image/svg+xml</dc:format>
    <dc:type rdf:resource="http://purl.org/dc/dcmitype/StillImage"/>
    <dc:title/>
   </cc:Work>
  </rdf:RDF>
 </metadata>
 <g transform="translate(-200,-702.375)">
  <path transform="translate(80,782.375)" fill="#586e75" d="m135-74c-4.9706,0-9,4.0294-9,9s4.0294,9,9,9,9-4.0294,9-9-4.0294-9-9-9zm0.84375,2.5c0.17908,0.000013,0.37387-0.0067,0.53125,0.03125,0.1628,0.038,0.28685,0.10068,0.40625,0.1875,0.12481,0.08684,0.24195,0.20809,0.3125,0.34375,0.076,0.13026,0.0937,0.28425,0.0937,0.46875-0.00001,0.22794-0.0327,0.4201-0.125,0.59375-0.0868,0.16824-0.22305,0.32355-0.375,0.4375-0.14653,0.10855-0.31007,0.19574-0.5,0.25-0.18994,0.05428-0.39296,0.06251-0.59375,0.0625-0.18452,0.00001-0.34263,0.0067-0.5-0.03125-0.15738-0.0434-0.28686-0.13191-0.40625-0.21875-0.11397-0.08682-0.2107-0.18224-0.28125-0.3125-0.0651-0.13023-0.0937-0.29508-0.0937-0.46875,0-0.2442,0.0436-0.42551,0.125-0.59375,0.0868-0.17365,0.20265-0.32895,0.34375-0.4375,0.14109-0.11395,0.27881-0.20115,0.46875-0.25,0.18994-0.05426,0.38753-0.06249,0.59375-0.0625zm-3.0312,3.875,3.9375,0-1.1562,5.4375c-0.0651,0.30391-0.11284,0.57784-0.15625,0.84375-0.0434,0.26049-0.0625,0.51665-0.0625,0.75,0,0.24421,0.0586,0.43226,0.15625,0.5625,0.10311,0.13024,0.25298,0.1875,0.4375,0.1875,0.17365,0.000001,0.32222-0.02863,0.46875-0.09375,0.14652-0.06512,0.31006-0.15643,0.5-0.28125l0.40625,0.5625c-0.13025,0.1411-0.26927,0.26515-0.4375,0.40625-0.16824,0.13567-0.38211,0.26646-0.59375,0.375-0.21165,0.10854-0.43244,0.18488-0.6875,0.25-0.24964,0.06512-0.53985,0.125-0.84375,0.125-0.64037,0-1.1269-0.17027-1.4688-0.46875-0.34189-0.3039-0.5-0.71274-0.5-1.25,0-0.23878,0.0191-0.51271,0.0625-0.84375s0.0952-0.73295,0.1875-1.1562l0.65625-3.0938c0.0163-0.07054,0.0516-0.14277,0.0625-0.21875,0.0163-0.07597,0.0204-0.15362,0.0312-0.21875,0.0109-0.07054,0.0258-0.1074,0.0312-0.15625,0.005-0.04883,0-0.10328,0-0.125,0-0.15194-0.0299-0.28274-0.0625-0.375-0.0326-0.09225-0.0857-0.13865-0.15625-0.1875-0.0705-0.04883-0.13604-0.07746-0.25-0.09375-0.10854-0.01627-0.24887-0.03124-0.40625-0.03125h-0.3125l0.15625-0.90625z" fill-rule="nonzero"/>
 </g>
</svg>
