<?xml version="1.0" encoding="UTF-8" standalone="no"?>
<!-- Created with Inkscape (http://www.inkscape.org/) -->
<svg id="svg2" xmlns:rdf="http://www.w3.org/1999/02/22-rdf-syntax-ns#" xmlns="http://www.w3.org/2000/svg" height="100%" viewBox="0 0 30 30" width="100%" version="1.1" xmlns:cc="http://creativecommons.org/ns#" xmlns:dc="http://purl.org/dc/elements/1.1/">
 <metadata id="metadata4">
  <rdf:RDF>
   <cc:Work rdf:about="">
    <dc:format>image/svg+xml</dc:format>
    <dc:type rdf:resource="http://purl.org/dc/dcmitype/StillImage"/>
    <dc:title/>
   </cc:Work>
  </rdf:RDF>
 </metadata>
 <path id="path3039" d="m15,6c-3.3671,0-6.0968,2.7297-6.0968,6.0966,0,0.07218,0.0022,0.14562,0.0054,0.21978,0.02286,0.64044,0.14364,1.2555,0.34902,1.831,1.3004,4.275,5.7424,9.852,5.7424,9.852s4.4411-5.5768,5.742-9.8521c0.20574-0.57546,0.32634-1.1911,0.34902-1.8315,0.0036-0.07416,0.0056-0.14742,0.0056-0.21978,0-3.3663-2.73-6.096-6.097-6.096zm0,9.0826c-1.649,0-2.986-1.337-2.986-2.986,0-1.6488,1.337-2.9858,2.986-2.9858,1.6492,0,2.986,1.337,2.986,2.9858,0,1.649-1.3369,2.986-2.986,2.986z" fill="#586e75"/>
</svg>
