<?xml version="1.0" encoding="UTF-8" standalone="no"?>
<!-- Created with Inkscape (http://www.inkscape.org/) -->
<svg id="svg2" xmlns:rdf="http://www.w3.org/1999/02/22-rdf-syntax-ns#" xmlns="http://www.w3.org/2000/svg" xml:space="preserve" height="30" viewBox="0 0 30 30.000103" width="30" version="1.1" xmlns:cc="http://creativecommons.org/ns#" xmlns:dc="http://purl.org/dc/elements/1.1/"><metadata id="metadata8"><rdf:RDF><cc:Work rdf:about=""><dc:format>image/svg+xml</dc:format><dc:type rdf:resource="http://purl.org/dc/dcmitype/StillImage"/><dc:title/></cc:Work></rdf:RDF></metadata><g id="g10" transform="matrix(1.7045 0 0 -1.7045 -210.6 235.48)"><g id="g12" transform="scale(.1)"><path id="path46" fill="#3d539f" d="m1401.8 1381.5h-156.57c-5.3665 0-9.7142-4.3476-9.7142-9.7134v-156.57c0-5.3645 4.3477-9.7134 9.7142-9.7134h84.293v68.155h-22.936v26.562h22.936v19.588c0 22.732 13.884 35.11 34.164 35.11 9.7136 0 18.062-0.7234 20.496-1.0465v-23.756l-14.066-0.01c-11.028 0-13.164-5.2405-13.164-12.931v-16.958h26.302l-3.4251-26.562h-22.877v-68.155h44.849c5.3646 0 9.7136 4.3489 9.7136 9.7134v156.57c0 5.3658-4.349 9.7134-9.7136 9.7134"/></g></g></svg>
