<?xml version="1.0" encoding="UTF-8" standalone="no"?>
<!-- Created with Inkscape (http://www.inkscape.org/) -->
<svg xmlns:rdf="http://www.w3.org/1999/02/22-rdf-syntax-ns#" xmlns="http://www.w3.org/2000/svg" version="1.1" xmlns:cc="http://creativecommons.org/ns#" xmlns:dc="http://purl.org/dc/elements/1.1/" viewBox="0 0 60 60">
 <metadata>
  <rdf:RDF>
   <cc:Work rdf:about="">
    <dc:format>image/svg+xml</dc:format>
    <dc:type rdf:resource="http://purl.org/dc/dcmitype/StillImage"/>
    <dc:title/>
   </cc:Work>
  </rdf:RDF>
 </metadata>
 <g fill-rule="nonzero" transform="translate(5,-1003.3622)">
  <path fill="#4c99d2" d="m17.934,1050.1c-0.36346,1.6001-1.9505,2.602-3.5433,2.2361-1.5928-0.3675-2.5873-1.9623-2.2225-3.5651,0.36404-1.6018,4.3031-5.5768,4.3031-5.5768s1.8268,5.3023,1.4627,6.9058"/>
  <path fill="#4c99d2" d="m4.6835,1050.2c-1.3261,0.9576-3.175,0.6546-4.1272-0.6818-0.95394-1.3334-0.65057-3.1922,0.67668-4.151,1.3255-0.9589,6.8933-1.3202,6.8933-1.3202s-2.1162,5.1928-3.4428,6.153"/>
  <path fill="#4c99d2" d="m4.8756,1038.5c-1.5744-0.4294-2.5055-2.0643-2.0795-3.6516,0.42414-1.5862,2.0501-2.5228,3.6267-2.0941,1.576,0.4303,5.3716,4.5457,5.3716,4.5457s-5.3406,1.6284-6.9188,1.2"/>
  <path fill="#f68714" d="m42.167,1027.1s0.07019,3.1516,0.81691,3.9894c0.7463,0.8396,2.8116-4.6597,2.5316-4.9652-0.27997-0.3048-3.3485,0.9758-3.3485,0.9758"/>
  <path fill="#f68714" d="m39.262,1016.9c-6.3785-3.778-12.396,0.6852-13.103,1.3422-0.70689,0.6565-0.4335,1.1583,1.3231,1.0315,1.7557-0.1255,4.4918,1.0526,4.9294,1.563,0.44088,0.5113,6.8501-3.9367,6.8501-3.9367"/>
  <path fill="#f14621" d="m27.878,1029c1.8497-5.0186,6.5-14.433,15.582-12.605,9.0804,1.8278,6.6568,6.5313,4.7258,8.6093-1.9306,2.078-9.4199,4.3286-13.992,4.2456-4.571-0.082-6.3165-0.2499-6.3165-0.2499"/>
  <path fill="#FFF" d="m45.994,1020.7c-0.0624,1.5779-1.3842,2.8081-2.954,2.7449-1.5698-0.061-2.7906-1.3916-2.7286-2.9692,0.06117-1.5787,1.3834-2.8088,2.9532-2.7457,1.5694,0.062,2.7906,1.3913,2.7295,2.97"/>
  <path fill="#152733" d="m45.419,1020c-0.03242,0.8098-0.70977,1.4407-1.5123,1.4085-0.80336-0.032-1.4298-0.7136-1.3998-1.5221,0.03367-0.8098,0.71018-1.4395,1.514-1.4073,0.80377,0.032,1.4302,0.7135,1.3982,1.5209"/>
  <path fill="#f14621" d="m28.898,1028.6c-3.5521,1.4102-0.11043,7.0861-2.6453,9.1815-1.4093,1.1918-3.2816-0.097-3.8181-1.601-0.49589-1.4623,0.22167-2.9336,0.94129-4.1602-1.3674,1.1502-4.3165,2.0261-5.5443,0.1628-1.0634-1.5395,0.4573-3.9944,1.9516-4.5346,3.0685-1.1634,6.2475,2.0722,9.3173,0.8271,0.07964-0.081,0.11987-0.1234,0.20074-0.1234"/>
  <path fill="#f68714" d="m35.685,1028.5c-0.63136,1.1934-3.0094,4.7233-2.5472,5.4262,0.4573,0.7057,6.9253-2.8478,7.6038-5.2263,0.67487-2.3787-5.0566-0.1999-5.0566-0.1999"/>
 </g>
</svg>
