<?xml version="1.0" encoding="UTF-8" standalone="no"?>
<!-- Generator: Adobe Illustrator 19.1.1, SVG Export Plug-In . SVG Version: 6.00 Build 0)  -->
<svg id="Calque_1" xmlns:rdf="http://www.w3.org/1999/02/22-rdf-syntax-ns#" xmlns="http://www.w3.org/2000/svg" xml:space="preserve" viewBox="-50 234.6 359.99997 359.99999" height="360" width="360" version="1.1" y="0px" x="0px" xmlns:cc="http://creativecommons.org/ns#" xmlns:dc="http://purl.org/dc/elements/1.1/"><metadata id="metadata47"><rdf:RDF><cc:Work rdf:about=""><dc:format>image/svg+xml</dc:format><dc:type rdf:resource="http://purl.org/dc/dcmitype/StillImage"/><dc:title/></cc:Work></rdf:RDF></metadata><style id="style3" type="text/css">
	.st0{fill:#F96D6D;}
	.st1{fill:#FFFFFF;}
	.st2{fill:#6B83B3;}
	.st3{fill:#A9D7F6;}
</style><g id="g5" transform="translate(585 4.7)"><path id="path7" fill="#f96d6d" class="st0" d="m347 295.3c-21.1-21-51.3-27.3-77.9-19l-95.7 21.7c-4.4 0.7-10.5 4.5-11.2 8.8-0.4 2.2-0.7 6.2 6.8 10.4l29.5 11.3c12.3 5.8 10.9 16.1 8.6 24.2-9 22.9-17.5 48.6-24.2 70.3-2.4 7.6-10.7 7.3-15.1 6.5l-2.9-0.7-31.7-7.3c-11.6-3.1-21.1-2.3-13.4 13.8l3.5 9.5c1.5 6.3 0.8 12-3.6 16.8 0 0-6.5 5.2-14.9 13.1-19.9 18.9-31.5 55.2 9.7 34.1l70.1-40.3c7-3.8 23.5-11.5 23.5-11.5 3.7-17.1 19.7-23.9 34.9-26.4-14.9 5.8-28.7 15.1-30.5 29.8l-4.4 42.3c-0.3 8 6.2 9.6 10.2 5l58.2-67.2c2.2-2.2 3.7-3.6 3.7 0l1 31.8c0.3 0.5 1 0.7 2 0.7 2.4-0.1 4.5-1.7 5.4-3.8l28.7-46.7c13-6.2 23.5-12.5 29.4-18.4 30.4-30 30.4-78.8 0.3-108.8z"/><g id="g9"><path id="path11" fill="#fff" class="st1" d="m317.8 322.8c4.4 15.5-4.8 31.6-20.4 36-15.6 4.3-31.8-4.7-36.1-20.3s4.8-31.6 20.4-36c15.6-4.3 31.7 4.8 36.1 20.3z"/><g id="g13"><path id="path15" fill="#6b83b3" class="st2" d="m308.1 331.7c-0.7 10-9.4 17.5-19.4 16.8s-17.5-9.3-16.9-19.2c0.7-10 9.4-17.5 19.4-16.8s17.6 9.3 16.9 19.2z"/><path id="path17" fill="#6b83b3" class="st2" d="m299.4 335.3c-2.3 5.4-8.6 7.9-14 5.5s-7.9-8.5-5.6-13.9 8.6-7.9 14-5.5c5.4 2.3 7.9 8.6 5.6 13.9z"/><path id="path19" fill="#fff" class="st1" d="m303.8 322.7c-1.7 3.9-6.1 5.6-10 4-3.9-1.7-5.6-6.1-4-10 1.7-3.9 6.1-5.6 10-4 3.9 1.7 5.7 6.1 4 10z"/></g></g><g id="g21"><path id="path23" fill="#fff" class="st1" d="m344.3 301.7c1.9-4.3 7.8 0.1 13.3 9.8s8.4 21 6.6 25.2c-1.9 4.3-7.8-0.1-13.3-9.8s-8.5-20.9-6.6-25.2z"/><g id="g25"><path id="path27" fill="#6b83b3" class="st2" d="m350.3 307.7c2.3-0.5 6.4 4.5 9.3 11.1s3.3 12.4 1.1 12.8c-2.3 0.5-6.4-4.5-9.3-11.1-2.9-6.5-3.4-12.3-1.1-12.8z"/><path id="path29" fill="#6b83b3" class="st2" d="m353.6 313.1c1.8 1 4.2 4.9 5.3 8.6s0.6 6-1.2 4.9-4.2-4.9-5.3-8.6-0.6-5.9 1.2-4.9z"/><path id="path31" fill="#fff" class="st1" d="m349.7 311.4c1.3 0.7 3 3.5 3.8 6.2s0.4 4.3-0.9 3.5c-1.3-0.7-3-3.5-3.8-6.2s-0.4-4.3 0.9-3.5z"/></g></g><g fill="#a9d7f6"><path id="path33" class="st3" d="m71.6 417.9c7.7 2.8 20.8 18.4 28.2 27.8 0.8 0.2 1.3 0.3 1.3 0.3s-7-37.7-15.3-46.1-21.9-8.6-30.3-0.3c-6.1 5.9-7.8 14.6-5.2 22.2 5.7-4.9 13.8-6.7 21.3-3.9z"/><path id="path35" class="st3" d="m187.8 519.4c-1.9-5.2 0.2-18.6 1.8-26.7-4 5.2-15.1 20.4-15.6 27.1-0.6 8.1 5.5 15.2 13.7 15.8 5.6 0.4 10.6-2.3 13.5-6.6-5.8-0.3-11.2-3.9-13.4-9.6z"/><path id="path37" class="st3" d="m39.8 508.7c2.6-12.4 22.8-35.6 36.6-50.1v-0.7s-53.2 24.2-62.6 39.5-4.6 35.3 10.8 44.7c9.1 5.6 19.9 6.1 29.2 2.4-11-7.9-17-21.7-14-35.8z"/></g><path id="path39" fill="#6b83b3" class="st2" d="m356.3 371.3-5.4 2.6c-0.3 0.1-1.3 0-1.6 0l-8.8-1.4c-2.3-0.4-3.7-1.3-3.8-3.8v-0.7c0-2.1 1.9-3.2 3.8-2.7l9.1 1h0.5l6.2-2.2c2.1-0.5 3.8 0.4 3.8 2.5v0.9c0 2.1-1.6 2.9-3.8 3.8z"/><path id="path41" fill="#6b83b3" class="st2" d="m221.7 372.1 5.3 19.6c1.1 1.9 16.8 13.2 16.8 13.2 2.2 1.5 0.4 4.9-2.1 3.9l-21.6-10.3c-0.8-0.3-1.3-1.1-1.4-1.9l-1.4-23.6c-0.1-2.6 3.5-3.3 4.4-0.9z"/></g><g id="g4218" transform="translate(585.3 80.622)"><circle id="path4175" cy="333.98" cx="-455.3" r="160" fill="#a9d7f6"/><g id="g4180" transform="translate(-702.03 -40)"><path id="path4182" d="m347 295.3c-21.1-21-51.3-27.3-77.9-19l-95.7 21.7c-4.4 0.7-10.5 4.5-11.2 8.8-0.4 2.2-0.7 6.2 6.8 10.4l29.5 11.3c12.3 5.8 10.9 16.1 8.6 24.2-9 22.9-17.5 48.6-24.2 70.3-2.4 7.6-10.7 7.3-15.1 6.5l-2.9-0.7-31.7-7.3c-11.6-3.1-21.1-2.3-13.4 13.8l3.5 9.5c1.5 6.3 0.8 12-3.6 16.8 0 0-6.5 5.2-14.9 13.1-19.9 18.9-31.5 55.2 9.7 34.1l70.1-40.3c7-3.8 23.5-11.5 23.5-11.5 3.7-17.1 19.7-23.9 34.9-26.4-14.9 5.8-28.7 15.1-30.5 29.8l-4.4 42.3c-0.3 8 6.2 9.6 10.2 5l58.2-67.2c2.2-2.2 3.7-3.6 3.7 0l1 31.8c0.3 0.5 1 0.7 2 0.7 2.4-0.1 4.5-1.7 5.4-3.8l28.7-46.7c13-6.2 23.5-12.5 29.4-18.4 30.4-30 30.4-78.8 0.3-108.8z" class="st0" fill="#f96d6d"/><g id="g4184"><path id="path4186" d="m317.8 322.8c4.4 15.5-4.8 31.6-20.4 36-15.6 4.3-31.8-4.7-36.1-20.3s4.8-31.6 20.4-36c15.6-4.3 31.7 4.8 36.1 20.3z" class="st1" fill="#fff"/><g id="g4188"><path id="path4190" d="m308.1 331.7c-0.7 10-9.4 17.5-19.4 16.8s-17.5-9.3-16.9-19.2c0.7-10 9.4-17.5 19.4-16.8s17.6 9.3 16.9 19.2z" class="st2" fill="#6b83b3"/><path id="path4192" d="m299.4 335.3c-2.3 5.4-8.6 7.9-14 5.5s-7.9-8.5-5.6-13.9 8.6-7.9 14-5.5c5.4 2.3 7.9 8.6 5.6 13.9z" class="st2" fill="#6b83b3"/><path id="path4194" d="m303.8 322.7c-1.7 3.9-6.1 5.6-10 4-3.9-1.7-5.6-6.1-4-10 1.7-3.9 6.1-5.6 10-4 3.9 1.7 5.7 6.1 4 10z" class="st1" fill="#fff"/></g></g><g id="g4196"><path id="path4198" d="m344.3 301.7c1.9-4.3 7.8 0.1 13.3 9.8s8.4 21 6.6 25.2c-1.9 4.3-7.8-0.1-13.3-9.8s-8.5-20.9-6.6-25.2z" class="st1" fill="#fff"/><g id="g4200"><path id="path4202" d="m350.3 307.7c2.3-0.5 6.4 4.5 9.3 11.1s3.3 12.4 1.1 12.8c-2.3 0.5-6.4-4.5-9.3-11.1-2.9-6.5-3.4-12.3-1.1-12.8z" class="st2" fill="#6b83b3"/><path id="path4204" d="m353.6 313.1c1.8 1 4.2 4.9 5.3 8.6s0.6 6-1.2 4.9-4.2-4.9-5.3-8.6-0.6-5.9 1.2-4.9z" class="st2" fill="#6b83b3"/><path id="path4206" d="m349.7 311.4c1.3 0.7 3 3.5 3.8 6.2s0.4 4.3-0.9 3.5c-1.3-0.7-3-3.5-3.8-6.2s-0.4-4.3 0.9-3.5z" class="st1" fill="#fff"/></g></g><path id="path4214" d="m356.3 371.3-5.4 2.6c-0.3 0.1-1.3 0-1.6 0l-8.8-1.4c-2.3-0.4-3.7-1.3-3.8-3.8v-0.7c0-2.1 1.9-3.2 3.8-2.7l9.1 1h0.5l6.2-2.2c2.1-0.5 3.8 0.4 3.8 2.5v0.9c0 2.1-1.6 2.9-3.8 3.8z" class="st2" fill="#6b83b3"/><path id="path4216" d="m221.7 372.1 5.3 19.6c1.1 1.9 16.8 13.2 16.8 13.2 2.2 1.5 0.4 4.9-2.1 3.9l-21.6-10.3c-0.8-0.3-1.3-1.1-1.4-1.9l-1.4-23.6c-0.1-2.6 3.5-3.3 4.4-0.9z" class="st2" fill="#6b83b3"/></g></g></svg>
