<?xml version="1.0" encoding="UTF-8" standalone="no"?>
<!-- Created with Inkscape (http://www.inkscape.org/) -->
<svg xmlns:rdf="http://www.w3.org/1999/02/22-rdf-syntax-ns#" xmlns="http://www.w3.org/2000/svg" version="1.1" xmlns:cc="http://creativecommons.org/ns#" xmlns:dc="http://purl.org/dc/elements/1.1/" viewBox="0 0 30 30">
 <metadata>
  <rdf:RDF>
   <cc:Work rdf:about="">
    <dc:format>image/svg+xml</dc:format>
    <dc:type rdf:resource="http://purl.org/dc/dcmitype/StillImage"/>
    <dc:title/>
   </cc:Work>
  </rdf:RDF>
 </metadata>
 <g transform="translate(-40,-862.375)">
  <path fill-rule="nonzero" fill="#586e75" d="m55,868.38c-0.39984,0-0.80145,0.0115-1.1875,0.0625l-0.4375,2.8438c-0.54489,0.14485-1.055,0.34832-1.5312,0.625l-2.3125-1.6875c-0.62827,0.4811-1.1741,1.06-1.6562,1.6875l1.6875,2.3125c-0.26707,0.46301-0.51321,0.97235-0.65625,1.5l-2.8125,0.4375c-0.053,0.4-0.094,0.82-0.094,1.23,0,0.3989,0.0123,0.77105,0.0625,1.1562l2.8438,0.4375c0.14171,0.53898,0.35425,1.0589,0.625,1.5312l-1.6562,2.3125c0.48217,0.6275,1.028,1.2064,1.6562,1.6875l2.3125-1.6875c0.47629,0.27668,0.98636,0.48015,1.5312,0.625l0.4375,2.8125c0.38605,0.05,0.78765,0.125,1.1875,0.125,0.39984,0,0.80145-0.0738,1.1875-0.125l0.4375-2.8125c0.54489-0.14485,1.055-0.34832,1.5312-0.625l2.3125,1.6875c0.62827-0.4811,1.1741-1.06,1.6562-1.6875l-1.657-2.32c0.27075-0.47234,0.48329-0.99227,0.625-1.5312l2.8438-0.4375c0.05-0.38,0.062-0.76,0.062-1.15,0-0.4087-0.04097-0.82435-0.09375-1.2188l-2.8125-0.4375c-0.14304-0.52765-0.38918-1.037-0.65625-1.5l1.6875-2.3125c-0.48217-0.6275-1.028-1.2064-1.6562-1.6875l-2.3125,1.6875c-0.47629-0.27668-0.98636-0.48015-1.5312-0.625l-0.439-2.84c-0.387-0.05-0.788-0.06-1.188-0.06zm0,5.8438c1.7397,0,3.1562,1.4165,3.1562,3.1562s-1.4165,3.125-3.1562,3.125-3.1562-1.3853-3.1562-3.125,1.4165-3.1562,3.1562-3.1562z"/>
 </g>
</svg>
